<mxfile host="app.diagrams.net" modified="2024-03-06T06:05:19.260Z" agent="Mozilla/5.0 (Windows NT 10.0; Win64; x64) AppleWebKit/537.36 (KHTML, like Gecko) Chrome/122.0.0.0 Safari/537.36" version="22.1.16" etag="R6XHodjW9lCCKELumc5V" type="github">
  <diagram name="페이지-1" id="RbtyITWIb4wQIsUO1Foq">
    <mxGraphModel>
      <root>
        <mxCell id="0" />
        <mxCell id="1" parent="0" />
      </root>
    </mxGraphModel>
  </diagram>
</mxfile>
